<svg width="102" height="74" viewBox="0 0 102 74" fill="none" xmlns="http://www.w3.org/2000/svg">
<path d="M40.0058 30.4904C38.6918 28.9907 37.6531 27.2758 36.949 25.4435C36.2448 23.6113 35.8891 21.6977 35.902 19.8118C35.9149 17.926 36.2962 16.105 37.0242 14.4527C37.7522 12.8004 38.8125 11.3491 40.1448 10.1819L42.1459 12.4659C41.0802 13.3997 40.2318 14.5607 39.6495 15.8825C39.0671 17.2043 38.762 18.6612 38.7517 20.1698C38.7414 21.6785 39.026 23.2094 39.5893 24.6752C40.1526 26.141 40.9836 27.5129 42.0347 28.7127L40.0058 30.4904Z" fill="white"/>
<path d="M92.3158 11.1943C93.5875 12.6643 94.5893 14.3427 95.2641 16.1337C95.9388 17.9246 96.2731 19.7929 96.2481 21.632C96.223 23.4712 95.8391 25.245 95.1181 26.8523C94.3971 28.4597 93.3532 29.869 92.046 30.9998L90.1092 28.7609C91.1549 27.8563 91.99 26.7288 92.5668 25.443C93.1436 24.1571 93.4508 22.738 93.4708 21.2667C93.4909 19.7954 93.2234 18.3007 92.6836 16.868C92.1438 15.4353 91.3424 14.0925 90.325 12.9165L92.3158 11.1943Z" fill="white"/>
<path d="M3.237 17.876C3.731 17.876 4.19467 17.9497 4.628 18.097C5.06133 18.2443 5.44267 18.4523 5.772 18.721L5.018 19.878C4.45467 19.5227 3.887 19.345 3.315 19.345C3.04633 19.345 2.83833 19.3927 2.691 19.488C2.55233 19.5747 2.483 19.7003 2.483 19.865C2.483 19.995 2.51333 20.1033 2.574 20.19C2.64333 20.268 2.77767 20.3503 2.977 20.437C3.17633 20.5237 3.484 20.6277 3.9 20.749C4.61933 20.957 5.15233 21.23 5.499 21.568C5.85433 21.8973 6.032 22.3567 6.032 22.946C6.032 23.414 5.89767 23.8213 5.629 24.168C5.36033 24.506 4.992 24.766 4.524 24.948C4.056 25.13 3.536 25.221 2.964 25.221C2.38333 25.221 1.84167 25.13 1.339 24.948C0.845 24.766 0.424667 24.5147 0.078 24.194L1.079 23.076C1.65967 23.5267 2.27067 23.752 2.912 23.752C3.224 23.752 3.46667 23.6957 3.64 23.583C3.822 23.4703 3.913 23.31 3.913 23.102C3.913 22.9373 3.87833 22.8073 3.809 22.712C3.73967 22.6167 3.60533 22.53 3.406 22.452C3.20667 22.3653 2.89033 22.2613 2.457 22.14C1.77233 21.9407 1.261 21.6633 0.923 21.308C0.585 20.9527 0.416 20.5107 0.416 19.982C0.416 19.5833 0.528667 19.228 0.754 18.916C0.988 18.5953 1.31733 18.344 1.742 18.162C2.17533 17.9713 2.67367 17.876 3.237 17.876ZM12.9142 25H11.1332L11.0422 24.129C10.5395 24.857 9.84185 25.221 8.94918 25.221C8.31651 25.221 7.83551 25.0303 7.50618 24.649C7.18551 24.2677 7.02518 23.7347 7.02518 23.05V18.097H9.07918V22.79C9.07918 23.128 9.13118 23.3663 9.23518 23.505C9.34785 23.635 9.51685 23.7 9.74218 23.7C10.1755 23.7 10.5482 23.4313 10.8602 22.894V18.097H12.9142V25ZM18.4296 17.876C19.2963 17.876 19.942 18.1967 20.3666 18.838C20.7913 19.4793 21.0036 20.3763 21.0036 21.529C21.0036 22.2397 20.891 22.8767 20.6656 23.44C20.449 23.9947 20.1326 24.4323 19.7166 24.753C19.3006 25.065 18.8153 25.221 18.2606 25.221C17.5673 25.221 17.0083 24.9827 16.5836 24.506V27.665L14.5296 27.886V18.097H16.3366L16.4406 18.864C16.7093 18.526 17.017 18.279 17.3636 18.123C17.7103 17.9583 18.0656 17.876 18.4296 17.876ZM17.6366 23.713C18.46 23.713 18.8716 22.9937 18.8716 21.555C18.8716 20.7403 18.7806 20.177 18.5986 19.865C18.4166 19.5443 18.1436 19.384 17.7796 19.384C17.5456 19.384 17.3246 19.4533 17.1166 19.592C16.9173 19.7307 16.7396 19.93 16.5836 20.19V23.102C16.861 23.5093 17.212 23.713 17.6366 23.713ZM28.3055 21.412C28.3055 21.698 28.2925 21.945 28.2665 22.153H23.9895C24.0588 22.7337 24.2235 23.141 24.4835 23.375C24.7435 23.609 25.1031 23.726 25.5625 23.726C25.8398 23.726 26.1085 23.6783 26.3685 23.583C26.6285 23.479 26.9101 23.323 27.2135 23.115L28.0585 24.259C27.2525 24.9003 26.3555 25.221 25.3675 25.221C24.2495 25.221 23.3915 24.8917 22.7935 24.233C22.1955 23.5743 21.8965 22.6903 21.8965 21.581C21.8965 20.879 22.0221 20.2507 22.2735 19.696C22.5248 19.1327 22.8931 18.6907 23.3785 18.37C23.8638 18.0407 24.4445 17.876 25.1205 17.876C26.1171 17.876 26.8971 18.188 27.4605 18.812C28.0238 19.436 28.3055 20.3027 28.3055 21.412ZM26.2905 20.827C26.2731 19.7697 25.9005 19.241 25.1725 19.241C24.8171 19.241 24.5398 19.371 24.3405 19.631C24.1498 19.891 24.0328 20.32 23.9895 20.918H26.2905V20.827ZM33.2033 17.902C33.4547 17.902 33.6843 17.9323 33.8923 17.993L33.5673 19.982C33.3073 19.9213 33.0993 19.891 32.9433 19.891C32.536 19.891 32.224 20.034 32.0073 20.32C31.7993 20.5973 31.6347 21.0177 31.5133 21.581V25H29.4593V18.097H31.2533L31.4223 19.436C31.5783 18.9593 31.8123 18.5867 32.1243 18.318C32.445 18.0407 32.8047 17.902 33.2033 17.902ZM46.7151 17.993C47.1831 17.993 47.6034 18.058 47.9761 18.188C48.3488 18.318 48.7041 18.513 49.0421 18.773L48.5351 19.527C48.2231 19.3277 47.9241 19.1803 47.6381 19.085C47.3608 18.9897 47.0661 18.942 46.7541 18.942C46.3641 18.942 46.0564 19.0243 45.8311 19.189C45.6058 19.345 45.4931 19.5617 45.4931 19.839C45.4931 20.1163 45.5971 20.333 45.8051 20.489C46.0218 20.645 46.4074 20.7967 46.9621 20.944C47.7248 21.1347 48.2924 21.3947 48.6651 21.724C49.0464 22.0533 49.2371 22.504 49.2371 23.076C49.2371 23.752 48.9728 24.2677 48.4441 24.623C47.9241 24.9783 47.2871 25.156 46.5331 25.156C45.4931 25.156 44.6308 24.857 43.9461 24.259L44.5831 23.531C45.1638 23.973 45.8051 24.194 46.5071 24.194C46.9578 24.194 47.3131 24.103 47.5731 23.921C47.8418 23.7303 47.9761 23.4747 47.9761 23.154C47.9761 22.92 47.9284 22.7337 47.8331 22.595C47.7378 22.4477 47.5731 22.322 47.3391 22.218C47.1051 22.1053 46.7628 21.9883 46.3121 21.867C45.5841 21.6763 45.0554 21.4207 44.7261 21.1C44.4054 20.7793 44.2451 20.372 44.2451 19.878C44.2451 19.5227 44.3491 19.202 44.5571 18.916C44.7738 18.6213 45.0684 18.396 45.4411 18.24C45.8224 18.0753 46.2471 17.993 46.7151 17.993ZM53.4516 25.039C53.183 25.8363 52.806 26.4647 52.3206 26.924C51.844 27.392 51.1593 27.6737 50.2666 27.769L50.1366 26.833C50.5873 26.755 50.947 26.6423 51.2156 26.495C51.4843 26.3477 51.6966 26.157 51.8526 25.923C52.0173 25.6977 52.169 25.39 52.3076 25H51.9046L49.6036 18.149H50.8776L52.7106 24.129L54.5046 18.149H55.7396L53.4516 25.039ZM60.3311 17.993C60.9551 17.993 61.4404 18.1793 61.7871 18.552C62.1424 18.9247 62.3201 19.436 62.3201 20.086V25H61.1241V20.255C61.1241 19.7697 61.0331 19.4273 60.8511 19.228C60.6691 19.0287 60.4004 18.929 60.0451 18.929C59.6811 18.929 59.3604 19.033 59.0831 19.241C58.8057 19.449 58.5457 19.748 58.3031 20.138V25H57.1071V18.149H58.1341L58.2381 19.163C58.4807 18.799 58.7797 18.513 59.1351 18.305C59.4991 18.097 59.8977 17.993 60.3311 17.993ZM69.8983 21.373C69.8983 21.5723 69.8896 21.776 69.8723 21.984H65.5043C65.5563 22.738 65.7469 23.2927 66.0763 23.648C66.4056 24.0033 66.8303 24.181 67.3503 24.181C67.6796 24.181 67.9829 24.1333 68.2603 24.038C68.5376 23.9427 68.8279 23.791 69.1313 23.583L69.6513 24.298C68.9233 24.87 68.1259 25.156 67.2593 25.156C66.3059 25.156 65.5606 24.844 65.0233 24.22C64.4946 23.596 64.2303 22.738 64.2303 21.646C64.2303 20.9353 64.3429 20.307 64.5683 19.761C64.8023 19.2063 65.1316 18.773 65.5563 18.461C65.9896 18.149 66.4966 17.993 67.0773 17.993C67.9873 17.993 68.6849 18.292 69.1703 18.89C69.6556 19.488 69.8983 20.3157 69.8983 21.373ZM68.7153 21.022C68.7153 20.346 68.5809 19.8303 68.3123 19.475C68.0436 19.1197 67.6406 18.942 67.1033 18.942C66.1239 18.942 65.5909 19.6613 65.5043 21.1H68.7153V21.022ZM74.7852 17.993C75.0279 17.993 75.2532 18.019 75.4612 18.071L75.2402 19.241C75.0322 19.189 74.8329 19.163 74.6422 19.163C74.2176 19.163 73.8752 19.319 73.6152 19.631C73.3552 19.943 73.1516 20.4283 73.0042 21.087V25H71.8082V18.149H72.8352L72.9522 19.54C73.1342 19.0287 73.3812 18.643 73.6932 18.383C74.0052 18.123 74.3692 17.993 74.7852 17.993ZM82.1575 18.461C81.8975 18.5477 81.6115 18.604 81.2995 18.63C80.9875 18.656 80.6061 18.669 80.1555 18.669C80.9615 19.033 81.3645 19.6093 81.3645 20.398C81.3645 21.0827 81.1305 21.6417 80.6625 22.075C80.1945 22.5083 79.5575 22.725 78.7515 22.725C78.4395 22.725 78.1491 22.6817 77.8805 22.595C77.7765 22.6643 77.6941 22.7597 77.6335 22.881C77.5728 22.9937 77.5425 23.1107 77.5425 23.232C77.5425 23.6047 77.8415 23.791 78.4395 23.791H79.5315C79.9908 23.791 80.3981 23.8733 80.7535 24.038C81.1088 24.2027 81.3818 24.428 81.5725 24.714C81.7718 25 81.8715 25.325 81.8715 25.689C81.8715 26.3563 81.5985 26.8677 81.0525 27.223C80.5065 27.587 79.7091 27.769 78.6605 27.769C77.9238 27.769 77.3388 27.691 76.9055 27.535C76.4808 27.3877 76.1775 27.1623 75.9955 26.859C75.8135 26.5557 75.7225 26.1657 75.7225 25.689H76.8015C76.8015 25.9663 76.8535 26.183 76.9575 26.339C77.0615 26.5037 77.2478 26.625 77.5165 26.703C77.7851 26.7897 78.1665 26.833 78.6605 26.833C79.3798 26.833 79.8911 26.742 80.1945 26.56C80.5065 26.3867 80.6625 26.1223 80.6625 25.767C80.6625 25.4463 80.5411 25.2037 80.2985 25.039C80.0558 24.8743 79.7178 24.792 79.2845 24.792H78.2055C77.6248 24.792 77.1828 24.6707 76.8795 24.428C76.5848 24.1767 76.4375 23.8647 76.4375 23.492C76.4375 23.2667 76.5025 23.05 76.6325 22.842C76.7625 22.634 76.9488 22.4477 77.1915 22.283C76.7928 22.075 76.4981 21.8193 76.3075 21.516C76.1255 21.204 76.0345 20.827 76.0345 20.385C76.0345 19.9257 76.1471 19.514 76.3725 19.15C76.6065 18.786 76.9228 18.5043 77.3215 18.305C77.7288 18.097 78.1795 17.993 78.6735 17.993C79.2108 18.0017 79.6615 17.9843 80.0255 17.941C80.3895 17.889 80.6885 17.824 80.9225 17.746C81.1651 17.6593 81.4598 17.538 81.8065 17.382L82.1575 18.461ZM78.6735 18.851C78.2228 18.851 77.8718 18.994 77.6205 19.28C77.3778 19.5573 77.2565 19.9257 77.2565 20.385C77.2565 20.853 77.3821 21.23 77.6335 21.516C77.8848 21.7933 78.2401 21.932 78.6995 21.932C79.1675 21.932 79.5228 21.7977 79.7655 21.529C80.0168 21.2517 80.1425 20.866 80.1425 20.372C80.1425 19.358 79.6528 18.851 78.6735 18.851ZM86.1294 25.039C85.8607 25.8363 85.4837 26.4647 84.9984 26.924C84.5217 27.392 83.837 27.6737 82.9444 27.769L82.8144 26.833C83.265 26.755 83.6247 26.6423 83.8934 26.495C84.162 26.3477 84.3744 26.157 84.5304 25.923C84.695 25.6977 84.8467 25.39 84.9854 25H84.5824L82.2814 18.149H83.5554L85.3884 24.129L87.1824 18.149H88.4174L86.1294 25.039Z" fill="white"/>
</svg>
