<svg width="174" height="65" viewBox="0 0 174 65" fill="none" xmlns="http://www.w3.org/2000/svg">
<path d="M4.032 39.0228C3.276 39.0228 2.598 38.8968 1.998 38.6448C1.398 38.3808 0.924002 38.0208 0.576002 37.5648C0.228 37.0968 0.036 36.5628 0 35.9628H1.692C1.74 36.4548 1.968 36.8568 2.376 37.1688C2.796 37.4808 3.342 37.6368 4.014 37.6368C4.638 37.6368 5.13 37.4988 5.49 37.2228C5.85 36.9468 6.03 36.5988 6.03 36.1788C6.03 35.7468 5.838 35.4288 5.454 35.2248C5.07 35.0088 4.476 34.7988 3.672 34.5948C2.94 34.4028 2.34 34.2108 1.872 34.0188C1.416 33.8148 1.02 33.5208 0.684002 33.1368C0.36 32.7408 0.198 32.2248 0.198 31.5888C0.198 31.0848 0.348001 30.6228 0.648002 30.2028C0.948002 29.7828 1.374 29.4528 1.926 29.2128C2.478 28.9608 3.108 28.8348 3.816 28.8348C4.908 28.8348 5.79 29.1108 6.462 29.6628C7.134 30.2148 7.494 30.9708 7.542 31.9308H5.904C5.868 31.4148 5.658 31.0008 5.274 30.6888C4.902 30.3768 4.398 30.2208 3.762 30.2208C3.174 30.2208 2.706 30.3468 2.358 30.5988C2.01 30.8508 1.836 31.1808 1.836 31.5888C1.836 31.9128 1.938 32.1828 2.142 32.3988C2.358 32.6028 2.622 32.7708 2.934 32.9028C3.258 33.0228 3.702 33.1608 4.266 33.3168C4.974 33.5088 5.55 33.7008 5.994 33.8928C6.438 34.0728 6.816 34.3488 7.128 34.7208C7.452 35.0928 7.62 35.5788 7.632 36.1788C7.632 36.7188 7.482 37.2048 7.182 37.6368C6.882 38.0688 6.456 38.4108 5.904 38.6628C5.364 38.9028 4.74 39.0228 4.032 39.0228ZM20.8523 28.9968V38.8608H19.2143V37.4028C18.9023 37.9068 18.4643 38.3028 17.9003 38.5908C17.3483 38.8668 16.7363 39.0048 16.0643 39.0048C15.2963 39.0048 14.6063 38.8488 13.9943 38.5368C13.3823 38.2128 12.8963 37.7328 12.5363 37.0968C12.1883 36.4608 12.0143 35.6868 12.0143 34.7748V28.9968H13.6343V34.5588C13.6343 35.5308 13.8803 36.2808 14.3723 36.8088C14.8643 37.3248 15.5363 37.5828 16.3883 37.5828C17.2643 37.5828 17.9543 37.3128 18.4583 36.7728C18.9623 36.2328 19.2143 35.4468 19.2143 34.4148V28.9968H20.8523ZM27.416 30.8148C27.74 30.2508 28.22 29.7828 28.856 29.4108C29.504 29.0268 30.254 28.8348 31.106 28.8348C31.982 28.8348 32.774 29.0448 33.482 29.4648C34.202 29.8848 34.766 30.4788 35.174 31.2468C35.582 32.0028 35.786 32.8848 35.786 33.8928C35.786 34.8888 35.582 35.7768 35.174 36.5568C34.766 37.3368 34.202 37.9428 33.482 38.3748C32.774 38.8068 31.982 39.0228 31.106 39.0228C30.266 39.0228 29.522 38.8368 28.874 38.4648C28.238 38.0808 27.752 37.6068 27.416 37.0428V43.5408H25.778V28.9968H27.416V30.8148ZM34.112 33.8928C34.112 33.1488 33.962 32.5008 33.662 31.9488C33.362 31.3968 32.954 30.9768 32.438 30.6888C31.934 30.4008 31.376 30.2568 30.764 30.2568C30.164 30.2568 29.606 30.4068 29.09 30.7068C28.586 30.9948 28.178 31.4208 27.866 31.9848C27.566 32.5368 27.416 33.1788 27.416 33.9108C27.416 34.6548 27.566 35.3088 27.866 35.8728C28.178 36.4248 28.586 36.8508 29.09 37.1508C29.606 37.4388 30.164 37.5828 30.764 37.5828C31.376 37.5828 31.934 37.4388 32.438 37.1508C32.954 36.8508 33.362 36.4248 33.662 35.8728C33.962 35.3088 34.112 34.6488 34.112 33.8928ZM49.102 33.5508C49.102 33.8628 49.084 34.1928 49.048 34.5408H41.164C41.224 35.5128 41.554 36.2748 42.154 36.8268C42.766 37.3668 43.504 37.6368 44.368 37.6368C45.076 37.6368 45.664 37.4748 46.132 37.1508C46.612 36.8148 46.948 36.3708 47.14 35.8188H48.904C48.64 36.7668 48.112 37.5408 47.32 38.1408C46.528 38.7288 45.544 39.0228 44.368 39.0228C43.432 39.0228 42.592 38.8128 41.848 38.3928C41.116 37.9728 40.54 37.3788 40.12 36.6108C39.7 35.8308 39.49 34.9308 39.49 33.9108C39.49 32.8908 39.694 31.9968 40.102 31.2288C40.51 30.4608 41.08 29.8728 41.812 29.4648C42.556 29.0448 43.408 28.8348 44.368 28.8348C45.304 28.8348 46.132 29.0388 46.852 29.4468C47.572 29.8548 48.124 30.4188 48.508 31.1388C48.904 31.8468 49.102 32.6508 49.102 33.5508ZM47.41 33.2088C47.41 32.5848 47.272 32.0508 46.996 31.6068C46.72 31.1508 46.342 30.8088 45.862 30.5808C45.394 30.3408 44.872 30.2208 44.296 30.2208C43.468 30.2208 42.76 30.4848 42.172 31.0128C41.596 31.5408 41.266 32.2728 41.182 33.2088H47.41ZM55.0621 30.5988C55.3501 30.0348 55.7581 29.5968 56.2861 29.2848C56.8261 28.9728 57.4801 28.8168 58.2481 28.8168V30.5088H57.8161C55.9801 30.5088 55.0621 31.5048 55.0621 33.4968V38.8608H53.4241V28.9968H55.0621V30.5988ZM66.511 42.2088C65.359 41.0808 64.459 39.6468 63.811 37.9068C63.175 36.1668 62.857 34.2888 62.857 32.2728C62.857 30.2088 63.193 28.2828 63.865 26.4948C64.549 24.6948 65.521 23.2128 66.781 22.0488H68.491V22.2108C67.147 23.4708 66.133 24.9888 65.449 26.7648C64.777 28.5288 64.441 30.3648 64.441 32.2728C64.441 34.1328 64.759 35.9088 65.395 37.6008C66.043 39.2928 66.985 40.7748 68.221 42.0468V42.2088H66.511ZM76.1248 39.0228C75.3688 39.0228 74.6908 38.8968 74.0908 38.6448C73.4908 38.3808 73.0168 38.0208 72.6688 37.5648C72.3208 37.0968 72.1288 36.5628 72.0928 35.9628H73.7848C73.8328 36.4548 74.0608 36.8568 74.4688 37.1688C74.8888 37.4808 75.4348 37.6368 76.1068 37.6368C76.7308 37.6368 77.2228 37.4988 77.5828 37.2228C77.9428 36.9468 78.1228 36.5988 78.1228 36.1788C78.1228 35.7468 77.9308 35.4288 77.5468 35.2248C77.1628 35.0088 76.5688 34.7988 75.7648 34.5948C75.0328 34.4028 74.4328 34.2108 73.9648 34.0188C73.5088 33.8148 73.1128 33.5208 72.7768 33.1368C72.4528 32.7408 72.2908 32.2248 72.2908 31.5888C72.2908 31.0848 72.4408 30.6228 72.7408 30.2028C73.0408 29.7828 73.4668 29.4528 74.0188 29.2128C74.5708 28.9608 75.2008 28.8348 75.9088 28.8348C77.0008 28.8348 77.8828 29.1108 78.5548 29.6628C79.2268 30.2148 79.5868 30.9708 79.6348 31.9308H77.9968C77.9608 31.4148 77.7508 31.0008 77.3668 30.6888C76.9948 30.3768 76.4908 30.2208 75.8548 30.2208C75.2668 30.2208 74.7988 30.3468 74.4508 30.5988C74.1028 30.8508 73.9288 31.1808 73.9288 31.5888C73.9288 31.9128 74.0308 32.1828 74.2348 32.3988C74.4508 32.6028 74.7148 32.7708 75.0268 32.9028C75.3508 33.0228 75.7948 33.1608 76.3588 33.3168C77.0668 33.5088 77.6428 33.7008 78.0868 33.8928C78.5308 34.0728 78.9088 34.3488 79.2208 34.7208C79.5448 35.0928 79.7128 35.5788 79.7248 36.1788C79.7248 36.7188 79.5748 37.2048 79.2748 37.6368C78.9748 38.0688 78.5488 38.4108 77.9968 38.6628C77.4568 38.9028 76.8328 39.0228 76.1248 39.0228ZM92.6931 28.9968L86.7531 43.5048H85.0611L87.0051 38.7528L83.0271 28.9968H84.8451L87.9411 36.9888L91.0011 28.9968H92.6931ZM101.305 28.8168C102.505 28.8168 103.477 29.1828 104.221 29.9148C104.965 30.6348 105.337 31.6788 105.337 33.0468V38.8608H103.717V33.2808C103.717 32.2968 103.471 31.5468 102.979 31.0308C102.487 30.5028 101.815 30.2388 100.963 30.2388C100.099 30.2388 99.4097 30.5088 98.8937 31.0488C98.3897 31.5888 98.1377 32.3748 98.1377 33.4068V38.8608H96.4997V28.9968H98.1377V30.4008C98.4617 29.8968 98.8997 29.5068 99.4517 29.2308C100.015 28.9548 100.633 28.8168 101.305 28.8168ZM119.173 33.5508C119.173 33.8628 119.155 34.1928 119.119 34.5408H111.235C111.295 35.5128 111.625 36.2748 112.225 36.8268C112.837 37.3668 113.575 37.6368 114.439 37.6368C115.147 37.6368 115.735 37.4748 116.203 37.1508C116.683 36.8148 117.019 36.3708 117.211 35.8188H118.975C118.711 36.7668 118.183 37.5408 117.391 38.1408C116.599 38.7288 115.615 39.0228 114.439 39.0228C113.503 39.0228 112.663 38.8128 111.919 38.3928C111.187 37.9728 110.611 37.3788 110.191 36.6108C109.771 35.8308 109.561 34.9308 109.561 33.9108C109.561 32.8908 109.765 31.9968 110.173 31.2288C110.581 30.4608 111.151 29.8728 111.883 29.4648C112.627 29.0448 113.479 28.8348 114.439 28.8348C115.375 28.8348 116.203 29.0388 116.923 29.4468C117.643 29.8548 118.195 30.4188 118.579 31.1388C118.975 31.8468 119.173 32.6508 119.173 33.5508ZM117.481 33.2088C117.481 32.5848 117.343 32.0508 117.067 31.6068C116.791 31.1508 116.413 30.8088 115.933 30.5808C115.465 30.3408 114.943 30.2208 114.367 30.2208C113.539 30.2208 112.831 30.4848 112.243 31.0128C111.667 31.5408 111.337 32.2728 111.253 33.2088H117.481ZM125.133 30.5988C125.421 30.0348 125.829 29.5968 126.357 29.2848C126.897 28.9728 127.551 28.8168 128.319 28.8168V30.5088H127.887C126.051 30.5088 125.133 31.5048 125.133 33.4968V38.8608H123.495V28.9968H125.133V30.5988ZM136.438 28.8348C137.29 28.8348 138.034 29.0208 138.67 29.3928C139.318 29.7648 139.798 30.2328 140.11 30.7968V28.9968H141.766V39.0768C141.766 39.9768 141.574 40.7748 141.19 41.4708C140.806 42.1788 140.254 42.7308 139.534 43.1268C138.826 43.5228 137.998 43.7208 137.05 43.7208C135.754 43.7208 134.674 43.4148 133.81 42.8028C132.946 42.1908 132.436 41.3568 132.28 40.3008H133.9C134.08 40.9008 134.452 41.3808 135.016 41.7408C135.58 42.1128 136.258 42.2988 137.05 42.2988C137.95 42.2988 138.682 42.0168 139.246 41.4528C139.822 40.8888 140.11 40.0968 140.11 39.0768V37.0068C139.786 37.5828 139.306 38.0628 138.67 38.4468C138.034 38.8308 137.29 39.0228 136.438 39.0228C135.562 39.0228 134.764 38.8068 134.044 38.3748C133.336 37.9428 132.778 37.3368 132.37 36.5568C131.962 35.7768 131.758 34.8888 131.758 33.8928C131.758 32.8848 131.962 32.0028 132.37 31.2468C132.778 30.4788 133.336 29.8848 134.044 29.4648C134.764 29.0448 135.562 28.8348 136.438 28.8348ZM140.11 33.9108C140.11 33.1668 139.96 32.5188 139.66 31.9668C139.36 31.4148 138.952 30.9948 138.436 30.7068C137.932 30.4068 137.374 30.2568 136.762 30.2568C136.15 30.2568 135.592 30.4008 135.088 30.6888C134.584 30.9768 134.182 31.3968 133.882 31.9488C133.582 32.5008 133.432 33.1488 133.432 33.8928C133.432 34.6488 133.582 35.3088 133.882 35.8728C134.182 36.4248 134.584 36.8508 135.088 37.1508C135.592 37.4388 136.15 37.5828 136.762 37.5828C137.374 37.5828 137.932 37.4388 138.436 37.1508C138.952 36.8508 139.36 36.4248 139.66 35.8728C139.96 35.3088 140.11 34.6548 140.11 33.9108ZM155.19 28.9968L149.25 43.5048H147.558L149.502 38.7528L145.524 28.9968H147.342L150.438 36.9888L153.498 28.9968H155.19ZM158.475 42.2088V42.0468C159.711 40.7748 160.647 39.2928 161.283 37.6008C161.931 35.9088 162.255 34.1328 162.255 32.2728C162.255 30.3648 161.913 28.5288 161.229 26.7648C160.557 24.9888 159.549 23.4708 158.205 22.2108V22.0488H159.915C161.175 23.2128 162.141 24.6948 162.813 26.4948C163.497 28.2828 163.839 30.2088 163.839 32.2728C163.839 34.2888 163.515 36.1668 162.867 37.9068C162.231 39.6468 161.337 41.0808 160.185 42.2088H158.475Z" fill="black"/>
<path d="M68.6233 47.0307C66.5966 44.7174 64.9944 42.0722 63.9083 39.2461C62.8222 36.4199 62.2734 33.4682 62.2933 30.5594C62.3132 27.6506 62.9014 24.8416 64.0243 22.293C65.1472 19.7444 66.7828 17.5059 68.8378 15.7054L71.9245 19.2284C70.2805 20.6688 68.9721 22.4596 68.0737 24.4985C67.1754 26.5374 66.7049 28.7845 66.6889 31.1116C66.673 33.4386 67.112 35.8 67.9809 38.061C68.8498 40.3219 70.1315 42.438 71.753 44.2886L68.6233 47.0307Z" fill="white"/>
<path d="M158.565 17.2671C160.526 19.5346 162.072 22.1235 163.112 24.8859C164.153 27.6484 164.669 30.5303 164.63 33.367C164.592 36.2038 163.999 38.94 162.887 41.4192C161.775 43.8985 160.165 46.0723 158.149 47.8166L155.161 44.3632C156.774 42.9677 158.062 41.2287 158.952 39.2453C159.842 37.2619 160.316 35.073 160.346 32.8035C160.377 30.5341 159.965 28.2286 159.132 26.0187C158.3 23.8087 157.063 21.7376 155.494 19.9236L158.565 17.2671Z" fill="white"/>
</svg>
